<?xml version="1.0" standalone="no"?>
<svg xmlns:xlink="http://www.w3.org/1999/xlink" id="wave" style="transform:rotate(180deg); transition: 0.3s" viewBox="0 0 1440 100" version="1.1" xmlns="http://www.w3.org/2000/svg"><defs><linearGradient id="sw-gradient-0" x1="0" x2="0" y1="1" y2="0"><stop stop-color="rgba(255, 249, 234, 1)" offset="0%"/><stop stop-color="rgba(255, 249, 234, 1)" offset="100%"/></linearGradient></defs><path style="transform:translate(0, 0px); opacity:1" fill="url(#sw-gradient-0)" d="M0,30L30,31.7C60,33,120,37,180,40C240,43,300,47,360,48.3C420,50,480,50,540,50C600,50,660,50,720,41.7C780,33,840,17,900,13.3C960,10,1020,20,1080,21.7C1140,23,1200,17,1260,21.7C1320,27,1380,43,1440,45C1500,47,1560,33,1620,23.3C1680,13,1740,7,1800,15C1860,23,1920,47,1980,60C2040,73,2100,77,2160,78.3C2220,80,2280,80,2340,81.7C2400,83,2460,87,2520,81.7C2580,77,2640,63,2700,51.7C2760,40,2820,30,2880,28.3C2940,27,3000,33,3060,41.7C3120,50,3180,60,3240,68.3C3300,77,3360,83,3420,71.7C3480,60,3540,30,3600,28.3C3660,27,3720,53,3780,56.7C3840,60,3900,40,3960,28.3C4020,17,4080,13,4140,18.3C4200,23,4260,37,4290,43.3L4320,50L4320,100L4290,100C4260,100,4200,100,4140,100C4080,100,4020,100,3960,100C3900,100,3840,100,3780,100C3720,100,3660,100,3600,100C3540,100,3480,100,3420,100C3360,100,3300,100,3240,100C3180,100,3120,100,3060,100C3000,100,2940,100,2880,100C2820,100,2760,100,2700,100C2640,100,2580,100,2520,100C2460,100,2400,100,2340,100C2280,100,2220,100,2160,100C2100,100,2040,100,1980,100C1920,100,1860,100,1800,100C1740,100,1680,100,1620,100C1560,100,1500,100,1440,100C1380,100,1320,100,1260,100C1200,100,1140,100,1080,100C1020,100,960,100,900,100C840,100,780,100,720,100C660,100,600,100,540,100C480,100,420,100,360,100C300,100,240,100,180,100C120,100,60,100,30,100L0,100Z"/></svg>